<svg width="112" height="140" viewBox="0 0 112 140" fill="none" xmlns="http://www.w3.org/2000/svg">
<g clip-path="url(#clip0_4_219)">
<path d="M36.4907 119.244C30.1661 113.463 28.3196 101.315 30.9548 92.5141C35.5237 98.0628 41.8545 99.8205 48.4119 100.813C58.5349 102.344 68.4767 101.771 77.8807 97.1442C78.9565 96.6144 79.9507 95.9101 81.1262 95.1966C82.0086 97.7566 82.2382 100.341 81.93 102.971C81.1806 109.378 77.9925 114.326 72.9219 118.077C70.8943 119.578 68.7488 120.919 66.6546 122.334C60.2212 126.682 58.4806 131.781 60.898 139.197C60.9555 139.379 61.0069 139.559 61.1368 140C57.852 138.529 55.4527 136.389 53.6244 133.574C51.6935 130.605 50.7749 127.319 50.7266 123.764C50.7024 122.034 50.7024 120.288 50.4697 118.582C49.9016 114.424 47.9495 112.562 44.2719 112.455C40.4977 112.345 37.5121 114.678 36.7204 118.353C36.66 118.635 36.5723 118.913 36.4846 119.241L36.4907 119.244Z" fill="white"/>
<path d="M0.392517 91.0479C0.392517 91.0479 19.121 81.9245 37.9018 81.9245L52.0618 38.1015C52.592 35.9822 54.1398 34.5419 55.8873 34.5419C57.6349 34.5419 59.1827 35.9822 59.7129 38.1015L73.873 81.9245C96.116 81.9245 111.382 91.0479 111.382 91.0479C111.382 91.0479 79.5704 4.38623 79.5082 4.21235C78.5952 1.65017 77.0538 0 74.9758 0H36.8022C34.7242 0 33.245 1.65017 32.2699 4.21235C32.201 4.38295 0.392517 91.0479 0.392517 91.0479Z" fill="white"/>
</g>
<defs>
<clipPath id="clip0_4_219">
<rect width="111.215" height="140" fill="white" transform="translate(0.392517)"/>
</clipPath>
</defs>
</svg>
